<svg xmlns="http://www.w3.org/2000/svg" width="223.482" height="56.734" viewBox="0 0 223.482 56.734">
  <g id="Grupo_2" data-name="Grupo 2" transform="translate(-175.7 -262.016)">
    <rect id="Rectángulo_1" data-name="Rectángulo 1" width="45.638" height="45.638" transform="matrix(0.959, -0.284, 0.284, 0.959, 175.7, 274.997)" fill="#ffd243"/>
    <g id="Grupo_1" data-name="Grupo 1">
      <path id="Trazado_1" data-name="Trazado 1" d="M188.083,272.83h15.9c11.451,0,19.3,6.9,19.3,17.5s-7.851,17.5-19.3,17.5h-15.9Zm15.5,28.352c6.951,0,11.5-4.151,11.5-10.851s-4.55-10.851-11.5-10.851h-7.4v21.7Z" fill="#161615"/>
      <path id="Trazado_2" data-name="Trazado 2" d="M228.033,290.631h14.151v6.25H228.033Z" fill="#161615"/>
      <path id="Trazado_3" data-name="Trazado 3" d="M279.234,285.531c0,7.8-5.85,12.651-15.2,12.651h-7.05v9.65h-8.1v-35h15.151C273.384,272.83,279.234,277.68,279.234,285.531Zm-8.2,0c0-3.85-2.5-6.1-7.451-6.1h-6.6v12.151h6.6C268.533,291.581,271.034,289.331,271.034,285.531Z" fill="#161615"/>
      <path id="Trazado_4" data-name="Trazado 4" d="M282.382,294.381c0-8.1,6.251-13.851,14.8-13.851s14.751,5.751,14.751,13.851-6.2,13.851-14.751,13.851S282.382,302.481,282.382,294.381Zm21.652,0c0-4.65-2.951-7.45-6.851-7.45s-6.9,2.8-6.9,7.45,3,7.451,6.9,7.451S304.034,299.031,304.034,294.381Z" fill="#161615"/>
      <path id="Trazado_5" data-name="Trazado 5" d="M314.532,305.332l2.6-5.6a18.411,18.411,0,0,0,9.351,2.6c3.6,0,4.95-.95,4.95-2.45,0-4.4-16.251.1-16.251-10.651,0-5.1,4.6-8.7,12.451-8.7,3.7,0,7.8.85,10.351,2.35l-2.6,5.551a15.454,15.454,0,0,0-7.751-2c-3.5,0-5,1.1-5,2.5,0,4.6,16.251.15,16.251,10.751,0,5-4.651,8.55-12.7,8.55C321.633,308.232,317.032,306.982,314.532,305.332Z" fill="#161615"/>
      <path id="Trazado_6" data-name="Trazado 6" d="M361.033,306.532a11.147,11.147,0,0,1-6.35,1.7c-6.351,0-10.051-3.251-10.051-9.65V287.531h-4.151v-6h4.151v-6.55h7.8v6.55h6.7v6h-6.7v10.95c0,2.3,1.251,3.55,3.351,3.55a5.25,5.25,0,0,0,3.15-1Z" fill="#161615"/>
      <path id="Trazado_7" data-name="Trazado 7" d="M365.982,272.83h8.1v35h-8.1Z" fill="#ffd243"/>
      <path id="Trazado_8" data-name="Trazado 8" d="M399.182,306.532a11.147,11.147,0,0,1-6.35,1.7c-6.351,0-10.051-3.251-10.051-9.65V287.531h-4.15v-6h4.15v-6.55h7.8v6.55h6.7v6h-6.7v10.95c0,2.3,1.25,3.55,3.35,3.55a5.25,5.25,0,0,0,3.15-1Z" fill="#ffd243"/>
    </g>
  </g>
</svg>
