<svg xmlns="http://www.w3.org/2000/svg" width="23.604" height="21.637" viewBox="0 0 23.604 21.637">
  <g id="cloud-computing_2_" data-name="cloud-computing (2)" transform="translate(0 -21.334)">
    <g id="Grupo_15" data-name="Grupo 15" transform="translate(0 21.334)">
      <g id="Grupo_14" data-name="Grupo 14">
        <path id="Trazado_23" data-name="Trazado 23" d="M176.858,282.54l-1.272,1.272v-5.494a.984.984,0,0,0-1.967,0v5.494l-1.272-1.272a.984.984,0,0,0-1.391,1.391l2.951,2.951h0q.034.034.072.065l.035.026.042.031.043.026.04.023.045.022.043.02.044.016.047.016.044.011.049.012.052.008.043.006c.032,0,.064,0,.1,0h0q.048,0,.1,0l.043-.006.052-.008.049-.012.044-.011.047-.016.044-.016.043-.02.045-.022.04-.023.043-.026.042-.031.035-.026q.037-.031.072-.065h0l2.951-2.951a.984.984,0,1,0-1.391-1.391Z" transform="translate(-162.8 -265.532)" fill="#fff"/>
        <path id="Trazado_24" data-name="Trazado 24" d="M20.6,28.438c-.458-3.619-3.793-7.1-7.275-7.1A7.243,7.243,0,0,0,7.94,23.89l-.034-.012c-.045-.016-.091-.032-.137-.046l-.059-.017-.122-.035-.059-.015L7.4,23.737l-.055-.011L7.209,23.7l-.046-.007q-.078-.012-.157-.02l-.03,0c-.131-.013-.262-.02-.4-.02a3.984,3.984,0,0,0-.8.081l-.012,0q-.089.019-.177.041l-.027.008c-.053.014-.106.029-.158.045l-.037.012c-.048.015-.1.031-.144.049l-.044.017c-.045.017-.089.034-.133.053L5,23.979c-.042.018-.083.037-.124.056l-.052.026-.117.06-.054.03-.11.063-.055.034-.1.067-.056.038-.1.07-.055.042-.093.073-.054.045-.088.076-.053.049-.084.08-.052.052-.079.083-.05.055-.075.086-.048.057-.07.09-.045.059c-.023.031-.044.062-.066.093l-.042.061c-.021.032-.042.064-.062.1l-.039.063c-.02.033-.039.067-.058.1l-.035.063c-.019.035-.036.07-.054.106L3,25.915c-.017.037-.034.074-.05.111-.009.021-.019.042-.028.063-.016.039-.031.078-.046.117-.008.02-.016.04-.023.061-.015.041-.029.083-.042.125-.006.019-.013.038-.019.057-.014.045-.026.09-.039.136,0,.017-.009.033-.014.049-.013.05-.024.1-.035.153,0,.012-.006.024-.008.036q-.018.09-.032.181l0,.011a3.984,3.984,0,0,0-.041.4A5.788,5.788,0,0,0,0,32.153a6.634,6.634,0,0,0,3.544,5.82l.187.081H5.9a.984.984,0,1,0,0-1.967H4.156a4.8,4.8,0,0,1-2.189-3.934A3.8,3.8,0,0,1,4.02,28.878l.559-.268v-.619c0-.016,0-.039,0-.079l0-.068v-.108c0-.043,0-.043,0-.074a2.021,2.021,0,0,1,1.346-1.936,2,2,0,0,1,1.515.086l.017.008.058.03.03.016.043.025.078.048.018.012.018.012a2,2,0,0,1,.876,1.654.984.984,0,0,0,1.967,0,3.95,3.95,0,0,0-.975-2.6A5.263,5.263,0,0,1,13.326,23.3c2.268,0,4.651,2.357,5.23,4.857a6.94,6.94,0,0,0-.817.06l-.081.012a.984.984,0,1,0,.295,1.945L18,30.167a5.956,5.956,0,0,1,1.3-.016c.091.008.159.016.2.021a2.707,2.707,0,0,1,2.133,2.964,2.958,2.958,0,0,1-2.089,2.951H17.7a.984.984,0,1,0,0,1.967h2.08l.11-.026a4.909,4.909,0,0,0,3.71-4.892A4.713,4.713,0,0,0,20.6,28.438Z" transform="translate(0 -21.334)" fill="#fff"/>
      </g>
    </g>
  </g>
</svg>
