<svg xmlns="http://www.w3.org/2000/svg" width="81.784" height="101.062" viewBox="0 0 81.784 101.062">
  <g id="document_1_" data-name="document (1)" transform="translate(-38.8)">
    <g id="Grupo_8" data-name="Grupo 8" transform="translate(40.787 1.888)">
      <path id="Trazado_11" data-name="Trazado 11" d="M147.032,7.6H98.042A9.288,9.288,0,0,0,88.8,16.842V94.054h58.232a9.288,9.288,0,0,0,9.242-9.242V16.842A9.288,9.288,0,0,0,147.032,7.6Z" transform="translate(-78.366 -7.6)" fill="#f4f4f4"/>
      <path id="Trazado_12" data-name="Trazado 12" d="M56.042,51.6A9.288,9.288,0,0,0,46.8,60.842v67.971a9.288,9.288,0,0,0,9.242,9.242h48.991a9.288,9.288,0,0,0,9.242-9.242V70.58L97.381,51.6Z" transform="translate(-46.8 -40.669)" fill="#f4f4f4"/>
    </g>
    <path id="Trazado_13" data-name="Trazado 13" d="M250.4,70.58h16.893L250.4,51.6Z" transform="translate(-159.032 -38.781)" fill="#ffd243"/>
    <g id="Grupo_9" data-name="Grupo 9" transform="translate(38.8)">
      <path id="Trazado_14" data-name="Trazado 14" d="M109.454,0H60.463a11.135,11.135,0,0,0-11.13,10.931A11.108,11.108,0,0,0,38.8,21.961V89.932a11.111,11.111,0,0,0,11.13,11.13H98.92a11.135,11.135,0,0,0,11.13-10.931A11.108,11.108,0,0,0,120.583,79.1V11.13A11.111,11.111,0,0,0,109.454,0Zm-3.081,90.031a7.337,7.337,0,0,1-7.354,7.354H50.029a7.337,7.337,0,0,1-7.354-7.354V22.061a7.337,7.337,0,0,1,7.354-7.354h39.55V31.8a1.887,1.887,0,0,0,1.888,1.888h15.005V90.031h-.1ZM93.256,29.911V17.688l10.931,12.223ZM116.907,79.1a7.367,7.367,0,0,1-6.757,7.354V31.8c0-.2-.1-.5-.1-.7,0-.1-.1-.1-.1-.2-.1-.1-.1-.2-.2-.3L92.859,11.627h0c-.1-.1-.3-.2-.4-.3-.1,0-.1-.1-.2-.1a1.842,1.842,0,0,0-.7-.2H53.11a7.448,7.448,0,0,1,7.354-7.254h48.991a7.337,7.337,0,0,1,7.354,7.354V79.1Z" transform="translate(-38.8)" fill="#bebebe"/>
      <path id="Trazado_15" data-name="Trazado 15" d="M103.085,120.4h-16.4a1.888,1.888,0,1,0,0,3.776h16.3a1.889,1.889,0,0,0,.1-3.776Z" transform="translate(-73.372 -90.489)" fill="#bebebe"/>
      <path id="Trazado_16" data-name="Trazado 16" d="M103.085,316.4h-16.4a1.888,1.888,0,0,0,0,3.776h16.3a1.889,1.889,0,0,0,.1-3.776Z" transform="translate(-73.372 -237.796)" fill="#bebebe"/>
      <path id="Trazado_17" data-name="Trazado 17" d="M130.812,170H87.088a1.888,1.888,0,1,0,0,3.776h43.724a1.887,1.887,0,0,0,1.888-1.888A2.03,2.03,0,0,0,130.812,170Z" transform="translate(-73.673 -127.767)" fill="#bebebe"/>
      <path id="Trazado_18" data-name="Trazado 18" d="M130.812,206.8H87.088a1.888,1.888,0,0,0,0,3.776h43.724a1.887,1.887,0,0,0,1.888-1.888A2.03,2.03,0,0,0,130.812,206.8Z" transform="translate(-73.673 -155.424)" fill="#bebebe"/>
      <path id="Trazado_19" data-name="Trazado 19" d="M130.812,243.6H87.088a1.888,1.888,0,0,0,0,3.776h43.724a1.887,1.887,0,0,0,1.888-1.888A2.03,2.03,0,0,0,130.812,243.6Z" transform="translate(-73.673 -183.082)" fill="#bebebe"/>
      <path id="Trazado_20" data-name="Trazado 20" d="M130.812,280.4H87.088a1.888,1.888,0,1,0,0,3.776h43.724a1.887,1.887,0,0,0,1.888-1.888A2.03,2.03,0,0,0,130.812,280.4Z" transform="translate(-73.673 -210.74)" fill="#bebebe"/>
    </g>
  </g>
</svg>
